<?xml version="1.0" standalone="no"?>
<!DOCTYPE svg PUBLIC "-//W3C//DTD SVG 20010904//EN"
 "http://www.w3.org/TR/2001/REC-SVG-20010904/DTD/svg10.dtd">
<svg version="1.0" xmlns="http://www.w3.org/2000/svg"
 width="300.000000pt" height="300.000000pt" viewBox="0 0 300.000000 300.000000"
 preserveAspectRatio="xMidYMid meet">
<metadata>
Created by potrace 1.11, written by Peter Selinger 2001-2013
</metadata>
<g transform="translate(0.000000,300.000000) scale(0.100000,-0.100000)"
fill="#000000" stroke="none">
<path d="M1006 2431 c-38 -91 -93 -222 -122 -291 -29 -69 -164 -390 -299 -715
-136 -324 -263 -628 -282 -675 -20 -47 -43 -93 -53 -103 -10 -11 -42 -22 -85
-28 -38 -5 -70 -11 -73 -13 -8 -9 -4 -68 6 -75 6 -3 109 -6 228 -6 l218 0 6
25 c13 54 -9 70 -99 70 -72 0 -72 3 3 187 38 92 78 192 90 220 l21 53 325 0
325 0 52 -118 c29 -64 73 -162 97 -216 50 -110 49 -121 -11 -125 -113 -7 -107
-5 -111 -40 -2 -18 1 -38 7 -44 7 -9 128 -12 473 -11 254 1 471 2 481 3 13 1
17 10 17 41 0 25 -5 40 -12 41 -7 0 -22 2 -33 4 -11 2 -42 6 -68 10 l-49 6
-35 77 c-62 136 -70 154 -148 332 -42 96 -83 189 -90 205 -8 17 -74 167 -148
335 -74 168 -197 445 -272 615 -75 171 -146 331 -157 356 l-21 47 -56 0 -56 0
-69 -167z m-46 -785 c27 -59 50 -110 50 -112 0 -2 17 -41 39 -86 52 -114 111
-245 111 -249 0 -2 -121 -4 -270 -4 -173 0 -270 4 -270 10 0 6 55 141 121 300
67 160 123 299 127 309 4 16 8 13 23 -20 10 -21 41 -88 69 -148z"/>
<path d="M2612 998 c-154 -23 -247 -177 -198 -326 57 -169 289 -225 417 -99
52 51 70 88 76 157 15 167 -125 294 -295 268z"/>
</g>
</svg>
